# xmcd
#
# Track frame offsets:
#	150
#	20831
#	40552
#	60840
#	80868
#	99698
#	116887
#	139977
#	156427
#	172863
#	189698
#	206283
#	225317
#	244760
#
# Disc length: 3466 seconds
#
# Revision: 0
# Processed by: cddbd v1.5.2PL0 Copyright (c) Steve Scherf et al.
# Submitted via: EasyCDDAExtractor 2010.6.0.0
#
DISCID=b90d880e
DTITLE=Various Artist - Chill FM89 Bright and Blue 2
DYEAR=1900
DGENRE=
TTITLE0=อ๊อฟ ปองศักดิ์  - ผู้ชายคนนี้กำลังหมดแรง
TTITLE1=เป๊ก ผลิตโชค and VieTrio  - หยดน้ำตา
TTITLE2=Instinct  - เกิดมาเพื่อยอมเธอ 
TTITLE3=25 hours  - ทำได้เพียง
TTITLE4=ดา เอ็นโดรฟิน  - ครั้งหนึ่ง...เราเคยรักกัน
TTITLE5=บอย Peacemaker  - ความเคยชิน
TTITLE6=เบล สุพล  - หนึ่งความเหงาบนดาวเคราะห์
TTITLE7=แพรว คณิตกุล  - ได้โปรด (เพลงประกอบละคร หวานใจกับนายจอมหยิ่ง)
TTITLE8=The Bottom Blues  - พระเอก 
TTITLE9=บอล จารุลักษณ์  - ถ้าฉันเป็นเธอ
TTITLE10=Buddha Bless Feat. เกรียน peace - ลืมไปก่อน
TTITLE11=Tee Jetseter  - ดีอย่างไร
TTITLE12=สิงโต นำโชค - ทิ้ง (Leave It There)
TTITLE13=ลูลา - ราตรีนี้ (ยังอีกแสนไกล)
EXTD=
EXTT0=
EXTT1=
EXTT2=
EXTT3=
EXTT4=
EXTT5=
EXTT6=
EXTT7=
EXTT8=
EXTT9=
EXTT10=
EXTT11=
EXTT12=
EXTT13=
PLAYORDER=
